<svg id="beams-creative-logo" xmlns="http://www.w3.org/2000/svg" xmlns:xlink="http://www.w3.org/1999/xlink" width="109.571" height="64.765" viewBox="0 0 109.571 64.765">
  <defs>
    <clipPath id="clip-path">
      <rect id="Rectangle_2" data-name="Rectangle 2" width="109.571" height="64.765"/>
    </clipPath>
  </defs>
  <g id="Group_1" data-name="Group 1" clip-path="url(#clip-path)">
    <path id="Path_1" data-name="Path 1" d="M153.39,8.945l1.171-1.569a3.008,3.008,0,0,0,2.272,1.1A1.584,1.584,0,0,0,158.519,7c0-.89-.89-1.335-1.827-1.335h-.82L155.4,4.612l1.85-2.107a5.863,5.863,0,0,1,.562-.562V1.9a6.771,6.771,0,0,1-.82.07h-3.021V0h6.557V1.428L158.214,4.05a2.9,2.9,0,0,1,2.553,2.974,3.618,3.618,0,0,1-3.888,3.489,4.388,4.388,0,0,1-3.489-1.569" transform="translate(-115.089 0.001)"/>
    <path id="Path_2" data-name="Path 2" d="M15.14,32.681a5.683,5.683,0,0,0,3.544-5.449c0-4.217-2.455-6.181-7.726-6.181H3.126V46.024H10.5c5.943,0,8.956-2.422,8.956-7.2a6.141,6.141,0,0,0-4.317-6.143m-4.5-1.267H7.162V24.279h3.374c3.048,0,4.077.851,4.077,3.374s-1.3,3.761-3.971,3.761m-3.48,3.158H10.5c3.465,0,4.815,1.173,4.815,4.182,0,2.833-1.45,4.042-4.85,4.042h-3.3Z" transform="translate(-2.345 -15.795)"/>
    <path id="Path_3" data-name="Path 3" d="M92.413,42.585V34.713h7.764V31.344H92.413V24.49H101.8V21.051H88.377V46.024h14.294l.062-.214.941-2.981.082-.243H92.413Z" transform="translate(-66.309 -15.795)"/>
    <path id="Path_4" data-name="Path 4" d="M181.24,21.223l-.053-.172h-4.153l-.054.171-7.728,24.485-.1.317h4.03l.05-.177,1.952-6.814h7.361l1.952,6.814.051.177h4.343l-.1-.316Zm-5.175,14.758,1.206-4.042c.519-1.659,1.182-3.887,1.63-5.767.412,1.721,1.024,3.862,1.591,5.8l1.173,4.008Z" transform="translate(-126.915 -15.795)"/>
    <path id="Path_5" data-name="Path 5" d="M287.187,21.274l-.019-.223H282.12l-.048.181L278.7,33.878c-.55,2.048-1,3.971-1.3,5.5-.323-1.794-.774-3.856-1.211-5.5l-3.337-12.646-.048-.182h-5.12l-.019.223-2.072,24.485-.022.264h3.865l.017-.226.984-13.314c.126-1.768.232-3.844.3-5.427.348,1.552.809,3.464,1.289,5.329l3.513,13.455.048.182h3.467l.048-.181,3.618-13.525c.383-1.465.866-3.455,1.236-5.183.1,1.689.237,3.716.357,5.279L285.3,45.8l.017.226h4.006l-.023-.265Z" transform="translate(-199.255 -15.795)"/>
    <path id="Path_6" data-name="Path 6" d="M388.753,21.675l-.182-.125a11.887,11.887,0,0,0-6.813-2.046,8.065,8.065,0,0,0-5.674,1.972,6.925,6.925,0,0,0-2.053,5.192c0,3.494,1.764,5.622,5.552,6.7l2.423.7c2.535.754,3.477,1.785,3.477,3.805,0,2.5-1.807,4.112-4.6,4.112a9.653,9.653,0,0,1-5.929-2.2l-.238-.183-.13.271-1.335,2.775-.087.182.162.12a12.925,12.925,0,0,0,7.663,2.331c5.286,0,8.57-2.974,8.57-7.762,0-3.644-1.753-5.839-5.517-6.909l-2.774-.808c-2.682-.812-3.232-1.968-3.232-3.454,0-2.178,1.5-3.585,3.831-3.585a8.492,8.492,0,0,1,4.946,1.847l.225.172.137-.247,1.476-2.67Z" transform="translate(-279.983 -14.634)"/>
    <path id="Path_7" data-name="Path 7" d="M0,191.539c0-5.681,2.661-9.492,7.551-9.492a7.072,7.072,0,0,1,5.034,2.014l-1.042,1.367a5.855,5.855,0,0,0-4.027-1.834c-3.56,0-5.429,2.732-5.429,7.8,0,5.753,1.87,8.378,5.357,8.378a5.453,5.453,0,0,0,4.243-2.121l1.043,1.366a6.741,6.741,0,0,1-5.322,2.3c-5.034,0-7.407-4.1-7.407-9.78" transform="translate(0 -136.59)"/>
    <path id="Path_8" data-name="Path 8" d="M65.23,182.479l1.51-.324a18.288,18.288,0,0,1,.4,3.128,5.122,5.122,0,0,1,4.71-3.236,3.555,3.555,0,0,1,1.078.144l-.252,1.905a3.333,3.333,0,0,0-1.007-.144,4.432,4.432,0,0,0-4.495,4.746v12.225H65.23Z" transform="translate(-48.942 -136.59)"/>
    <path id="Path_9" data-name="Path 9" d="M105.407,191.684c0-5.681,2.7-9.636,7.191-9.636,4.027,0,6.652,2.625,6.652,9.241v.683H107.457c.144,5.681,2.085,7.8,5.789,7.8a7.164,7.164,0,0,0,4.566-1.869l.971,1.223a8.564,8.564,0,0,1-5.753,2.193c-5,0-7.623-3.919-7.623-9.636m11.722-1.258c-.036-5.249-1.654-6.831-4.6-6.831-2.732,0-4.854,2.121-5.034,6.831Z" transform="translate(-79.087 -136.591)"/>
    <path id="Path_10" data-name="Path 10" d="M185.383,199.56a6.373,6.373,0,0,1-5.106,2.625c-3.524,0-5.466-2.013-5.466-5.106,0-3.955,3.092-5.9,8.881-5.9a13.717,13.717,0,0,1,1.618.072v-2.7c0-2.625-.935-3.775-3.488-3.775a8.473,8.473,0,0,0-5.5,2.085l-.935-1.294a10.186,10.186,0,0,1,6.688-2.373c3.739,0,5.142,2.157,5.142,5.717v7.443c0,2.984,0,3.739,1.366,4.566l-.9,1.294a3.688,3.688,0,0,1-2.3-2.661m-.144-1.474V192.62c-.467-.036-1.115-.072-1.654-.072-4.782,0-6.724,1.223-6.724,4.459,0,2.445,1.079,3.739,3.56,3.739a5.757,5.757,0,0,0,4.818-2.661" transform="translate(-131.162 -137.456)"/>
    <path id="Path_11" data-name="Path 11" d="M242.561,182.851v-13.34h-2.373V168h2.373a31,31,0,0,1,.36-4.674l1.546-.431V168h4.495l-.18,1.51h-4.315v12.944c0,2.158.575,2.877,2.193,2.877a4.512,4.512,0,0,0,2.05-.5l.431,1.51a5.955,5.955,0,0,1-2.7.611c-2.661,0-3.884-1.294-3.884-4.1" transform="translate(-180.214 -122.221)"/>
    <path id="Path_12" data-name="Path 12" d="M290.444,159.223a1.366,1.366,0,0,1,1.366-1.366,1.343,1.343,0,0,1,1.366,1.366,1.366,1.366,0,1,1-2.732,0m.359,5,1.942-.324v18.877H290.8Z" transform="translate(-217.921 -118.441)"/>
    <path id="Path_13" data-name="Path 13" d="M313.34,182.372l1.941-.324,3.38,9.6c.863,2.481,1.906,5.322,2.373,6.976.468-1.69,1.438-4.386,2.337-6.939l3.236-9.313h2.013l-6.652,18.553h-1.978Z" transform="translate(-235.1 -136.591)"/>
    <path id="Path_14" data-name="Path 14" d="M383.18,191.684c0-5.681,2.7-9.636,7.191-9.636,4.027,0,6.652,2.625,6.652,9.241v.683H385.229c.144,5.681,2.085,7.8,5.789,7.8a7.164,7.164,0,0,0,4.566-1.869l.971,1.223a8.564,8.564,0,0,1-5.753,2.193c-5,0-7.622-3.919-7.622-9.636m11.722-1.258c-.036-5.249-1.654-6.831-4.6-6.831-2.732,0-4.854,2.121-5.034,6.831Z" transform="translate(-287.501 -136.591)"/>
  </g>
</svg>
