<svg xmlns="http://www.w3.org/2000/svg" width="32" height="32" viewBox="0 0 32 32">
  <path id="icon-instagram" d="M16,0c-4.35,0-4.891.021-6.594.093A11.906,11.906,0,0,0,5.523.838,7.848,7.848,0,0,0,2.689,2.687,7.758,7.758,0,0,0,.84,5.521,11.855,11.855,0,0,0,.1,9.406C.018,11.11,0,11.651,0,16S.023,20.891.1,22.594A11.936,11.936,0,0,0,.84,26.479a7.848,7.848,0,0,0,1.849,2.833,7.758,7.758,0,0,0,2.833,1.849,12.026,12.026,0,0,0,3.886.745c1.7.077,2.245.093,6.594.093s4.891-.021,6.594-.093a12.079,12.079,0,0,0,3.886-.745,7.848,7.848,0,0,0,2.833-1.849,7.717,7.717,0,0,0,1.849-2.833,12.026,12.026,0,0,0,.745-3.886C31.986,20.89,32,20.349,32,16s-.021-4.891-.093-6.594a12.044,12.044,0,0,0-.745-3.886,7.848,7.848,0,0,0-1.849-2.833A7.717,7.717,0,0,0,26.481.838,11.884,11.884,0,0,0,22.6.093C20.892.016,20.352,0,16,0Zm0,2.88c4.272,0,4.782.021,6.47.093a8.86,8.86,0,0,1,2.968.553,4.99,4.99,0,0,1,1.845,1.2,4.931,4.931,0,0,1,1.192,1.839,8.86,8.86,0,0,1,.553,2.968c.072,1.688.093,2.2.093,6.47s-.021,4.782-.1,6.47a9.123,9.123,0,0,1-.563,2.968,5.21,5.21,0,0,1-1.2,1.845,5.049,5.049,0,0,1-1.845,1.192,8.872,8.872,0,0,1-2.979.553c-1.7.072-2.2.093-6.48.093s-4.782-.021-6.481-.1A9.207,9.207,0,0,1,6.5,28.462a5.021,5.021,0,0,1-1.839-1.2,4.808,4.808,0,0,1-1.2-1.845A8.942,8.942,0,0,1,2.9,22.439c-.057-1.678-.084-2.2-.084-6.459S2.842,11.2,2.9,9.5a8.947,8.947,0,0,1,.563-2.979,4.694,4.694,0,0,1,1.2-1.845A4.769,4.769,0,0,1,6.5,3.477a8.926,8.926,0,0,1,2.964-.557c1.7-.061,2.2-.083,6.474-.083Zm0,4.907A8.214,8.214,0,1,0,24.216,16,8.211,8.211,0,0,0,16,7.788Zm0,13.547A5.334,5.334,0,1,1,21.336,16,5.33,5.33,0,0,1,16,21.335ZM26.467,7.459a1.921,1.921,0,1,1-1.923-1.918,1.923,1.923,0,0,1,1.923,1.918Z" transform="translate(-0.002)" fill="#9d9e9e"/>
</svg>
